<svg xmlns="http://www.w3.org/2000/svg" xml:space="preserve" viewBox="0 0 1024 1024"><path fill="#FEFEFF" d="M637.721 684c8.517-.343 8.542 7.098 11.14 11.608 4.849 8.415 8.873 17.305 13.242 25.996 2.718 5.408 5.44 10.813 8.43 16.76 2.25-3.883 4.502-7.323 6.309-10.983 3.241-6.566 6.087-13.328 9.336-19.89 3.48-7.03 7.052-14.03 11.015-20.79.853-1.454 3.517-2.483 5.404-2.577a179.821 179.821 0 0 1 18.916.048c1.22.068 3.328 2.21 3.334 3.405.182 33.964.147 67.93.147 102.404-6.85 0-13.454-.003-20.057.001-3.404.002-2.916-2.475-2.917-4.602-.009-18.33-.005-36.66-.006-54.99v-5.344c-7.799 14.156-15.324 27.918-23.015 41.586-.629 1.116-2.32 1.774-3.653 2.304-.864.343-1.974.064-2.974.064-10.639 0-10.988-.679-15.476-10.26-4.258-9.089-9.493-17.718-14.2-26.601-.934-1.761-1.423-3.758-2.695-5.613 0 4.19.077 8.383-.015 12.572-.295 13.417-.655 26.833-.982 40.25-.028 1.165-.16 2.362.039 3.494 1.179 6.696.852 7.144-5.685 7.152-5.298.007-10.596.002-15.946.002-.182-.74-.39-1.193-.391-1.646-.018-33.16.03-66.32-.095-99.48-.013-3.385 1.153-4.85 4.374-4.864 5.323-.022 10.647-.006 16.421-.006zM392.33 740.166c-1.685 1.661-2.952 3.265-4.532 4.455-6.48 4.879-6.604 5.867-2.497 12.124 3.992 6.082 7.705 12.351 11.43 18.605 2.53 4.25 4.868 8.613 7.87 13.956-3.781.26-6.922.654-10.065.665-17.59.06-17.483-.025-25.561-15.694-3.294-6.39-7.105-12.517-10.793-18.696-1.845-3.092-11.275-5.284-13.928-3.105-.9.739-1.228 2.628-1.197 3.977.224 9.576.502 19.155 1.004 28.72.162 3.082-.885 4.735-3.891 4.793-5.663.108-11.33-.02-16.994.048-3.26.039-3.196-2.088-3.19-4.388.029-12.33.014-24.659.013-36.988 0-19.827-.007-39.654.005-59.48.004-5.165.757-5.372 5.792-4.928 4.954.437 9.998-.293 14.996-.193 10.584.211 21.262-.137 31.716 1.196 9.039 1.153 16.312 6.54 21.39 14.375 6.457 9.962 7.203 28.505-.498 38.556-.38.496-.535 1.165-1.07 2.002M349.624 732c4.575-.335 9.174-.48 13.72-1.048 6.92-.863 11.526-6.034 11.678-12.706.123-5.338-5.088-12.728-10.169-13.095-7.214-.522-14.494-.133-21.855-.133 0 7.639.287 14.643-.1 21.609-.26 4.658 1.613 5.991 6.726 5.373zM543.63 684.13c5.876-.116 11.349-.06 16.819-.146 2.52-.04 3.808.393 4.856 3.357 3.298 9.327 7.59 18.297 11.06 27.57 5.8 15.495 11.131 31.167 16.918 46.669 3.286 8.803 7.087 17.414 10.99 26.926-1.858.5-3.688 1.358-5.547 1.426-5.323.193-10.669.244-15.982-.056-1.377-.078-3.383-1.358-3.88-2.582-2.394-5.893-4.37-11.955-6.568-18.163h-38.749c-2.189 5.74-4.151 11.625-6.74 17.219-.76 1.64-3.23 3.349-5.034 3.485-5.797.439-11.65.222-17.478.127-3.126-.05-3.83-1.259-2.547-4.44 4.707-11.675 9.026-23.505 13.573-35.244 6.517-16.823 13.12-33.612 19.652-50.43 1.434-3.69 2.49-7.547 4.173-11.114.825-1.748 2.686-3.008 4.484-4.604m3.338 48.114-6.889 16.614h25.473l-12.944-33.62c-2.111 6.095-3.86 11.142-5.64 17.006zM481 741.766c.53 4.198-1.054 5.371-4.788 5.297-10.951-.219-21.91-.078-33.21-.078 0 6.513.064 12.631-.027 18.747-.048 3.214 1.944 3.292 4.302 3.285 12.16-.038 24.326.16 36.481-.113 4.261-.097 5.69 1.257 5.305 5.409-.307 3.303-.36 6.691.008 9.982.545 4.868-1.89 5.784-6.038 5.755-16.825-.119-33.651-.05-50.477-.05-2.5 0-5.021-.216-7.492.05-3.946.424-5.186-1.03-5.148-5.04.185-19.822.084-39.647.084-59.472 0-12.161.145-24.325-.083-36.482-.074-3.938 1.058-5.175 5.077-5.134 18.99.193 37.983.107 56.974.057 4.05-.01 6.4.436 5.246 5.827-1.013 4.737-.212 9.862-.212 15.2h-43.8v19.993c10.98 0 21.77.191 32.546-.095 4.248-.112 5.679 1.23 5.313 5.4-.32 3.637-.064 7.324-.061 11.462zM169.435 682.013c9.025-.607 17.592-.051 25.515 3.162 6.365 2.582 12.185 6.525 16.212 12.832-3.614 4.72-7.235 9.472-10.882 14.203-2.558 3.318-5.054 1.59-6.941-.538-6.061-6.836-18.278-10.317-26.367-6.43-2.287 1.098-4.056 4.553-4.8 7.273-1.035 3.783 1.97 6.566 4.94 7.91 7.095 3.208 14.323 6.342 21.794 8.462 20.04 5.686 30.327 26.121 20.48 44.419-6.304 11.716-16.298 17.087-28.887 17.51-8.105.272-16.518-.154-24.33-2.114-7.392-1.855-14.835-5.098-19.77-11.683-.688-.917-.895-3.13-.276-3.931 3.122-4.034 6.631-7.765 9.926-11.668 2.403-2.845 4.777-1.099 6.258.553 7.482 8.346 16.873 9.122 26.966 7.244 1.993-.371 4.53-1.027 5.63-2.462 6.098-7.952 2.864-14.454-6.717-17.989-11.455-4.225-24.124-6.501-32.97-16.106-7.326-7.955-9.015-17.53-6.087-27.605 2.963-10.195 9.946-16.943 20.235-20.06 3.209-.973 6.407-1.98 10.07-2.982zM896.794 694.572c-3.99 6.503-7.894 12.615-11.594 18.849-6.12 10.312-12.185 20.66-18.09 31.096-1.136 2.01-1.983 4.489-2.018 6.766-.192 12.657-.092 25.318-.092 38.66-6.948 0-13.863.14-20.755-.189-.794-.038-2.058-2.673-2.091-4.128-.203-8.825-.569-17.686.015-26.476.54-8.148-1.163-15.297-5.56-22.136-10.406-16.182-20.585-32.51-30.791-48.819-.639-1.02-.725-2.386-1.24-4.188 7.955 0 15.379.02 22.803-.008 4.101-.015 5.885 3.19 7.516 5.95 4.938 8.359 9.441 16.973 14.248 25.412 1.264 2.221 3.011 4.167 4.745 6.523 1.972-3.21 4.21-6.49 6.08-9.97 4.448-8.276 8.554-16.742 13.21-24.895.892-1.56 3.627-2.743 5.597-2.882 5.453-.385 10.953-.228 16.428-.064 1.853.056 3.686.774 5.528 1.19-.61 1.721-1.156 3.47-1.85 5.156-.54 1.312-1.267 2.547-2.089 4.153zM277 759c0 9.166-.138 17.835.068 26.496.084 3.537-1.135 4.733-4.619 4.563-4.821-.235-9.679-.307-14.49.014-4.082.271-5.05-1.292-5.027-5.174.152-25.497.072-50.995.067-76.492V705c-8.89 0-17.5-.143-26.101.069-3.595.088-5.242-.844-4.944-4.732.29-3.81.289-7.678 0-11.489-.258-3.424 1.185-4.839 4.373-4.84 25.498-.01 50.995-.013 76.493.015 3.649.004 4.621 1.981 4.119 5.432-.384 2.631-.557 5.444-.051 8.025 1.174 5.995.162 7.517-5.882 7.52-7.81.003-15.621 0-24.005 0v54zM771.975 760.95V769c10.771 0 21.366-.04 31.96.011 10.34.05 8.975-1.31 9.063 8.972.02 2.5-.193 5.019.051 7.495.322 3.273-1.365 4.488-4.2 4.494-19.795.043-39.59.023-59.616.023V685.364c5.947-.456 11.821-.799 17.67-1.393 3.907-.398 5.192.934 5.161 4.994-.18 23.83-.089 47.661-.089 71.984z"/><path fill="#AC31BF" d="M469.204 467.04c-.067-.772-.133-1.544.267-2.796.82-1.992 1.45-3.499 1.477-5.016.121-6.738.069-13.48.49-20.223 4.83.514 7.516-1.235 9.015-5.597a32.708 32.708 0 0 1 4.796-8.993c4.475-5.9 9.823-11.18 13.935-17.303 5.273-7.852 10.42-15.964 14.17-24.594 2.077-4.776 1.195-10.838 1.645-16.32.24-2.938-.002-5.529-3.168-7.109-.914-.456-1.205-2.158-1.44-3.213 1.425.495 2.509.914 3.762 1.61 6.727 4.703 13.284 9.131 19.843 13.981-.64 3.987-1.906 7.574-1.77 11.109.186 4.909-1.776 8.577-4.621 12.145-3.162 3.966-7.54 7.568-9.051 12.106-2.531 7.598-7.768 12.803-12.437 18.708-3.11 3.934-5.677 8.37-8.01 12.83-3.259 6.233-5.24 13.309-9.327 18.88-3.6 4.906-5.514 9.98-7.153 15.648-3.174-1.353-5.954-2.743-8.742-4.115-1.218-.6-2.454-1.16-3.681-1.738z"/><path fill="#7141C7" d="M717.056 429.2s.003.427-.382.783c-1.088 1.834-1.912 3.267-2.47 4.796-5.367 14.708-12.72 28.292-22.779 41.261l3.644-30.47c.336-2.534.908-4.66.86-6.772-.254-11.258-.664-22.513-.708-33.91 5.229-4.504 9.94-9.132 15.137-13.128 3.154-2.426 7.058-3.876 10.638-5.296-.306 7.675-.657 14.881-.923 22.09-.092 2.496.027 5 .05 7.5-.717 3.407-1.433 6.814-2.448 10.81-.405 1.172-.512 1.754-.62 2.336z"/><path fill="#F949DF" d="M302.23 398c-2.029-28.897 5.358-55.573 20.416-79.925 9.119-14.745 20.749-27.618 36.66-38.243-1.4 4.725-2.194 8.052-3.366 11.241-3.484 9.48-7.715 18.732-10.507 28.405-2.324 8.053-3.33 16.536-4.362 24.897-1.061 8.609-1.99 17.3-1.993 25.957-.005 11.898 1.44 23.695 5.02 35.174 6.862 22.005 18.722 40.678 36.338 55.637.821.698 1.281 1.82 2.227 3.231.307.909.296 1.33-.043 1.693a39.152 39.152 0 0 1-4.739-3.436c-7.056-8.081-13.96-15.868-20.87-23.642-.007.014.02-.006-.016-.326-.68-1.125-1.323-1.93-2.107-3.053-8.434-15.128-14.86-30.603-16.96-48.035-.262-12.957-1.674-25.596-.55-38.006 1.739-19.2 7.227-37.707 14.47-55.625.802-1.983 1.402-4.048 2.095-6.076l-1.276-.514c-27 23.474-43.488 52.69-47.647 89.117-.036 7.487-.056 14.505-.416 21.525l-2.373.005z"/><path fill="#7657F0" d="M629.087 573.088c-1.803 2.485-3.142 5.59-5.49 7.345-9.543 7.135-19.118 14.297-29.206 20.612-11.185 7-23.615 11.353-36.769 12.835-10.287 1.158-20.726 2.396-31 1.83-9.305-.513-18.535-3.183-27.687-5.364-4.756-1.133-9.273-3.266-13.899-4.948l.215-1.64c1.606-.25 3.21-.709 4.818-.72 16.966-.12 33.228-2.955 49.198-9.288 15.198-6.028 28.97-14.102 40.77-25.004 8.035-7.423 14.894-16.364 21.135-25.414 5.844-8.476 10.184-17.989 15.503-26.88.324.64.332 1.113.336 1.962-.996 3.116-1.99 5.856-3.137 8.908-8.82 17.054-19.686 32.123-34.154 44.832-24.685 20.795-52.826 32.19-84.895 34.009 18.951 6.992 38.215 9.594 57.906 6.629 28.001-4.217 51.96-16.637 71.866-36.842 1.214-1.233 2.915-1.987 4.414-2.939l.076.077z"/><path fill="#CE35BE" d="M410.874 422.963c.06.744.122 1.487-.1 2.762-.784 2.12-1.284 3.708-2.068 5.102-1.774-3.323-3.633-6.332-4.691-9.6-4.762-14.699-9.296-29.472-13.507-44.221 4.35.55 7.109-1.101 7.378-5.044.468-6.834 6.481-10.078 9.323-15.34.295-.546 1.822-.427 2.78-.174-.647 8.818-1.3 17.191-1.968 26.03.287 5.805.59 11.144.892 16.483 0 0 .157.41.14.909-.029.685-.042.872-.364 1.345-.427 4.45-.544 8.615-.67 13.225-.004 2.206-.347 4.066.124 5.69.324 1.115 1.78 1.9 2.73 2.833z"/><path fill="#F140E3" d="M575.976 296.818c-1.717.034-3.433.067-5.773-.178-1.482-.135-2.34.01-3.198.153-3.036.038-6.072.076-9.653-.103-.815-.12-1.085-.021-1.355.076-15.941.1-31.51 2.755-46.772 7.164-14.662 4.235-29.236 8.771-43.85 13.175l-.742-1.28c5.544-5.178 10.738-10.811 16.717-15.427 8.322-6.426 16.957-12.547 25.951-17.982 16.441-9.936 34.07-17.612 53.166-20.106 13.057-1.705 26.443-.893 40.103-.826.432.8.443 1.22-.017 1.61-7.83-.05-15.188-.07-23.004-.099-7.996.893-15.656 1.226-23.052 2.799-25.336 5.386-47.314 17.909-67.81 33.234-4.798 3.588-9 7.97-13.477 11.988l.738 1.25c23.931-9.135 48.531-15.303 74.531-17.317 9.475.044 18.483.07 27.501.391.006.69.001 1.084-.004 1.478zM390.103 377.009c4.616 14.746 9.15 29.52 13.912 44.218 1.058 3.268 2.917 6.277 4.696 9.59.29.186.277.188.277.521-.003.778-.006 1.222-.35 1.669-.794.016-1.248.03-1.702.045-3.628-8.355-8.05-16.466-10.704-25.12-4.335-14.133-8.68-28.448-10.83-43.01-1.787-12.107-.425-24.678-.453-37.044-.003-1.331.083-2.665.032-3.994-.492-12.9 3.47-24.905 6.91-37.114 3.614-12.83 9.39-24.498 16.09-35.88 5.986-10.165 14.043-18.508 22.776-26.584.69.298.956.498 1.106.975-.71 1.077-1.306 1.876-2.195 2.832-6.203 7.276-12.794 13.94-17.899 21.596-17.394 26.088-25.194 55.367-25.493 86.412-.131 13.616 2.467 27.258 3.827 40.888z"/><path fill="#9B4AEC" d="M483.925 552.942c5.551-2.603 11.268-4.908 16.617-7.875 9.521-5.282 19.46-10.128 28.044-16.698 10.112-7.74 19.342-16.755 28.255-25.898 7.275-7.463 13.508-15.94 20.242-23.935.82-.975 1.876-1.75 3.87-3.578-.192 2.812.069 4.576-.47 6.047-7.08 19.32-14.356 38.555-27.113 55.085-1.235 1.6-2.369 3.277-3.937 4.936-.388.018-.444-.037-.456-.406 4.026-6.987 8.523-13.373 11.997-20.275 5.617-11.16 10.562-22.66 15.79-34.017l-1.492-.864c-3.272 3.602-6.594 7.16-9.808 10.814-14.295 16.258-29.705 31.285-48.316 42.6-7.192 4.373-14.791 8.076-22.573 12.138-3.771 1.062-7.174 2.07-10.594 2.79-.03-.48-.043-.672-.056-.864z"/><path fill="#F140E3" d="M302.156 398.354c.753-.354 1.43-.355 2.47.085 1.287 12.223 3.5 23.707 8.383 34.947 6.684 18.81 17.017 34.763 32.054 47.954 10.956 11.192 23.752 18.992 38.102 25.012 11.41 3.747 22.59 7.234 33.784 11.055.017.781.02 1.228.022 1.675-7.095-1.925-14.294-3.539-21.256-5.863-7.153-2.387-14.365-4.914-21.021-8.392-7.656-4-14.89-8.882-22.022-13.794-10.27-7.073-18.694-16.242-25.95-26.206-7.662-10.52-14.125-21.937-17.648-34.64-2.027-7.311-3.408-14.801-5.086-23.021-.266-2.25-.526-3.69-.786-5.131-.374-1.11-.748-2.219-1.046-3.681z"/><path fill="#F949DF" d="M431.977 225.003c-.264-.2-.53-.4-.91-.823 8.038-7.967 16.978-14.68 27.317-19.137 9.272-3.997 18.595-8.385 28.35-10.628 12.849-2.955 25.975-4.366 39.462-2.735 10.05 1.215 20.063 2.424 29.61 5.51 7.907 2.557 15.313 6.659 23.082 10.756.126 1.157.111 1.636-.223 1.966-6.42-2.757-12.52-5.367-18.863-8.24-10.767-2.726-21.29-5.186-32.26-7.66-7.029-.024-13.611-.104-20.191-.026-11.895.142-23.273 2.887-34.722 7.057-4.444 1.829-8.8 3.183-12.55 5.514-9.512 5.915-18.752 12.269-28.102 18.446z"/><path fill="#F140E3" d="M408.037 382.013c.652-8.374 1.305-16.747 1.989-25.913.329-1.906.626-3.019.94-4.548 1.37-7.442 2.724-14.468 4.346-21.755 5.091-18.558 11.608-36.135 21.424-52.444 7.522-12.499 17.519-22.712 28.583-32.466 4.737-2.739 9.163-5.334 13.955-7.91l1.827.09c-8.109 6.209-16.563 12.022-24.234 18.733-8.5 7.436-15.22 16.531-20.026 26.81-5.309 11.358-10.819 22.68-15.137 34.425-3.368 9.16-5.52 18.85-7.355 28.467-2.249 11.796-3.604 23.763-5.624 36.08-.278.425-.688.43-.688.43z"/><path fill="#CB3AE4" d="M621.173 413.97c-3.695-11.333-6.71-22.946-11.258-33.926-5.603-13.527-12.489-26.521-18.776-39.767-.246-.52-.031-1.257-.031-3.398 5.196 4.133 9.614 7.436 13.789 11.022 4.945 4.247 9.995 8.446 14.425 13.2 4.887 5.244 9.183 11.045 13.608 16.704 1.537 1.966 2.69 4.233 4.041 7.046.004.894-.017 1.105-.325 1.13-1.203-1.146-2.155-2.075-3.03-3.072-8.836-10.075-17.571-20.242-26.55-30.189-2.329-2.58-5.408-4.484-8.142-6.7l-1.077.798c9.403 18.747 17.737 37.907 23.222 58.553.663 3.128 1.302 5.876 1.635 8.626-.715-.009-1.123-.018-1.53-.027z"/><path fill="#9B4AEC" d="M694.91 405.03c.355 11.255.765 22.51 1.02 33.768.047 2.112-.525 4.238-1.177 6.778-.787.415-1.208.41-1.63.405-.023-9.609.425-19.25-.213-28.818-.567-8.511-2.339-16.943-3.437-25.939a8.252 8.252 0 0 0-.246-2.231c-3.447-9.506-6.157-19.367-10.52-28.433-5.996-12.462-15.435-22.556-25.549-31.92-1.552-1.437-3.314-2.648-4.761-4.294.681-.323 1.145-.314 1.817-.041 1.709 1.212 3.397 1.96 4.679 3.145 4.445 4.11 8.748 8.374 13.254 12.88 5.693 9.098 11.239 17.896 16.844 27.067.385 1.314.777 2.237 1.026 3.198 2.976 11.475 5.931 22.955 8.892 34.434z"/><path fill="#7657F0" d="M661.15 443.977c1.241 4.882 3.344 9.728 3.554 14.655.523 12.28 1.043 24.675-.078 36.873-.895 9.734-3.852 19.347-6.533 28.833-4.198 14.857-11.905 28.016-21.092 40.315-2.19 2.934-4.802 5.553-7.567 8.376-.347.06-.397.008-.402-.372.937-1.923 1.829-3.5 2.831-5.002 2.374-3.56 4.8-7.084 7.498-10.788 2.09-2.92 4.044-5.583 5.654-8.442 8.164-14.488 13.972-29.806 16.157-46.792.718-4.92 1.754-9.472 1.725-14.018-.07-11.196-.628-22.39-1.106-33.956-.67-3.455-1.225-6.538-1.494-9.632.474-.024.664-.037.853-.05z"/><path fill="#F140E3" d="M393.97 570.037c-6.76-4.45-12.008-10.339-17.32-16.433-6.764-7.76-11.031-16.656-15.18-25.775-.31-.679-.283-1.51.102-3.085 21.563 17.933 45.49 30.289 73.934 33.757.443.74.458 1.122.03 1.507-4.468-.408-8.494-.819-12.793-1.467-20.957-4.867-39.523-13.975-56.529-27.856 0 1.573-.15 2.11.027 2.497a79.481 79.481 0 0 0 2.44 4.907c6.605 12.163 15.912 22.026 26.141 31.006a5.21 5.21 0 0 0-.853.942z"/><path fill="#9B4AEC" d="M720.435 415.835c-.335-2.282-.454-4.785-.362-7.281.266-7.209.617-14.415.934-22.533-.682-6.617-.912-12.42-2.14-18.005-2.362-10.74-4.56-21.615-10.905-31.365-5.672-8.802-11.302-17.244-17.07-25.993-4.061-4.687-7.985-9.066-11.98-13.713-.358-.487-.642-.705-.927-.93 0-.008-.024.013.013-.266.053-.464.07-.65.088-.836 4.84 4.43 10.194 8.427 14.384 13.405 4.956 5.888 9.457 12.322 13.152 19.069 4.436 8.099 8.293 16.597 11.542 25.245 5.028 13.381 6.653 27.529 6.564 41.716-.045 7.095-1.929 14.179-3.293 21.487z"/><path fill="#F140E3" d="M513.983 357.21c-1.083-.42-2.167-.84-3.769-1.608-6.53-4.162-12.69-7.762-18.504-11.855-4.698-3.306-9.654-4.003-14.52-1.63-5.178 2.524-6.283 7.529-6.262 13.084.101 26.914 0 53.829-.31 80.752-.654.013-1.027.018-1.401.022-.033-28.7-.065-57.4.097-86.655.334-.893.22-1.13-.147-1.268 4.355-9.425 12.992-12.292 21.716-7.024 7.677 4.635 15.226 9.48 22.985 14.876.14.864.128 1.085.115 1.306z"/><path fill="#9B4AEC" d="M549.073 541.07c-4.932 6.417-9.482 13.183-14.935 19.118-11.975 13.032-26.6 22.468-43.478 27.624-15.007 4.585-30.482 7.04-46.49 3.252-.208-1.132-.209-1.577.217-2.027 6.49.307 12.554.618 19.066.937 13.515-.46 26.008-3.34 37.967-8.67 18.48-8.235 31.773-22.503 44.287-37.724.865-1.052 2.178-1.736 3.282-2.59l.084.08z"/><path fill="#F949DF" d="M481.478 237.035c-.864.008-1.351-.016-2.036-.35 1.753-1.745 3.704-3.18 6.029-4.636 5.093-1.73 9.813-3.44 14.753-5.227.495-.258.684-.503 1.028-.83.24-.015.721-.06 1.112-.084 8.18-1.671 15.97-3.319 24.215-4.954 13.095 1.036 25.734 2.06 38.635 3.351 7.524 2.481 14.872 4.455 22.015 7.004 3.808 1.358 7.262 3.709 10.567 5.645l-.927.1c-4.499-1.673-8.93-3.562-13.512-4.968-7.23-2.218-14.451-4.765-21.872-6.002-13.642-2.274-27.195-3.935-41.32-1.504-10.334 1.778-20.014 4.703-29.616 8.44-2.965 1.155-5.8 2.647-9.071 4.015z"/><path fill="#CB3AE4" d="M417.184 519.43c-.215-.795-.218-1.242.153-2.007 2.14-.037 3.908.246 6.082.597 18.115 3.006 35.855 3.38 53.592.438 4.794-.796 9.508-2.071 14.74-3.233-11.813-3.551-22.8-6.854-33.774-10.454l.035-.891c11.244 2.838 22.487 5.68 33.735 8.506 1.103.278 2.257.367 3.342.695.97.292 1.876.793 2.81 1.201-.812.828-1.486 2.13-2.456 2.41-13.67 3.942-27.749 5.991-41.87 6.041-12.055.043-24.118-1.893-36.39-3.302z"/><path fill="#9B4AEC" d="M621.103 414.378c.478-.399.886-.39 1.75-.027 2.058 10.457 3.659 20.562 5.233 31.098.256 6.22.916 12.022.724 17.795-.23 6.93-1.185 13.834-1.883 21.142-.675 3.274-1.082 6.22-1.951 9.024-2.556 8.24-5.295 16.423-7.962 24.628-.007-.473-.015-.946-.035-1.774.018-1.093.05-1.831.353-3.1.406-1.033.539-1.537.672-2.041 3.691-12.51 6.524-25.033 7.25-38.262.962-17.508.83-34.73-3.183-51.838-.48-2.048-.7-4.156-.968-6.645z"/><path fill="#7657F0" d="M693.054 446.427c.49-.44.912-.436 1.649-.437-.848 9.732-2.013 19.47-3.278 30.05 10.06-12.969 17.412-26.553 22.778-41.26.559-1.53 1.383-2.963 2.401-4.595-1.438 5.707-2.315 12.036-5.134 17.33-5.586 10.488-12.191 20.437-18.505 30.527-1.249 1.995-3.083 3.623-5.457 4.661 1.825-11.943 3.65-23.887 5.546-36.276z"/><path fill="#CB3AE4" d="M469.254 467.374c1.177.244 2.413.805 3.63 1.404 2.79 1.372 5.569 2.762 9.1 4.116 9.505-5.364 18.263-10.698 27.343-16.131 10.512-6.579 20.662-13.123 30.92-19.492 2.743-1.703 5.819-2.87 8.768-4.257l.076.08c-3.289 2.63-6.406 5.52-9.903 7.837-7.793 5.165-15.762 10.067-23.686 15.035-6.956 4.361-13.947 8.667-20.923 12.996-.95.59-1.97 1.093-2.846 1.778-8.663 6.773-15.92 5.803-22.479-3.366zM677.932 294.608c.137.49.12.677-.282 1.12-3.802-2.094-7.22-4.445-10.802-7.086-11.05-6.038-21.936-11.786-33.166-17.7-11.115-2.717-21.887-5.268-32.658-7.82-.01-.419-.022-.838-.034-1.572 28.89 3.056 54.857 13.22 76.942 33.058zM514.153 357.486c-.157-.497-.145-.718-.12-1.27 5.621 2.865 11.324 5.907 16.816 9.291 10.149 6.253 20.255 12.583 30.219 19.125 5.482 3.6 10.638 7.695 15.959 11.945.017.378-.037.433-.39.424-6.783-4.001-13.212-7.994-19.838-12.26-7.732-4.747-15.269-9.221-22.805-13.696-6.557-4.428-13.114-8.856-19.841-13.56zM576.407 296.908c-.426-.484-.42-.878.007-1.585 7.802.696 15.181 1.706 22.82 2.983 5.66 1.842 11.306 2.86 16.404 5.116 8.611 3.81 16.876 8.404 25.458 12.95 2.12 2.016 4.069 3.75 5.984 5.524-.032.042-.1.124-.396.12-.69-.015-1.084-.029-1.479-.042-5.827-3.6-11.524-7.432-17.51-10.744-9.03-4.996-18.496-8.865-28.868-10.317-7.368-1.032-14.662-2.592-22.42-4.005z"/><path fill="#9B4AEC" d="M661.098 443.53c-.137.46-.327.473-.851.106-2.295-6.802-4.254-13.224-6.231-20.028-5.34-11.459-10.662-22.536-16.12-33.925a90.16 90.16 0 0 1-.963-3.517c.02-.21.042-.42.085-.947 3.927 5.878 8.209 11.873 11.621 18.328 2.966 5.611 5.4 11.604 7.25 17.678 2.18 7.146 3.478 14.56 5.21 22.306z"/><path fill="#F140E3" d="M457.82 503.57c.184.508.176.706-.23 1.177-8.132-2.397-15.865-5.066-23.907-7.908-7.264-3.485-14.303-6.637-21.135-10.19-2.752-1.43-5.05-3.735-7.53-5.667l.074-.073c4.879 2.36 9.658 4.959 14.654 7.036 12.576 5.23 25.248 10.225 38.074 15.625z"/><path fill="#CB3AE4" d="M443.96 589.041c.001.446.002.891-.014 1.67-18.432-1.935-34.852-9.079-49.846-20.35.074-.601.28-.878 1.034-1.128 3.264 1.298 5.978 2.568 8.767 4.185 1.46 1.436 2.686 2.931 4.257 3.547 8.88 3.48 17.842 6.75 27.046 10.361 3.098.752 5.928 1.234 8.757 1.715zM435.979 560.005c-.015-.382-.03-.763-.048-1.43 4.24-.038 8.567.864 12.71.33 9.975-1.282 19.863-3.23 29.783-4.928 1.567-.268 3.117-.631 5.088-.993.426.15.439.342.23 1.085-8.737 2.662-17.253 4.773-26.234 6.885-7.487-.317-14.508-.633-21.53-.95zM577.071 396.928c5.638 4.957 5.676 14.11-1.153 19.312-8.198 6.244-17.352 11.235-26.46 16.811-.367.043-.418-.01-.413-.38 7.256-5.219 14.498-10.081 21.761-14.912 7.043-4.685 8.696-8.648 6.98-16.893-.268-1.285-.53-2.57-.796-3.856l.081-.082z"/><path fill="#F140E3" d="M605.08 228.92c2.34 2.54 4.942 4.888 6.953 7.665 2.618 3.615 4.768 7.57 7.725 12.361-6.625.2-9.72-4.647-14.054-7.251.1-.537.225-.65.7-.714 2.802 1.275 5.254 2.5 8.776 4.259-3.8-6.049-6.998-11.137-10.172-16.248l.072-.071zM578.984 210.06c.015-.478.03-.957.066-1.792 7.318 5.08 14.616 10.517 21.946 16.329.033.374-.013.42-.366.41-6.415-4.048-12.477-8.087-18.704-12.384-1.09-1.027-2.016-1.795-2.942-2.563z"/><path fill="#CB3AE4" d="M469.13 436.438c.46-.467.834-.472 1.523-.102.334 1.14.354 1.906.374 2.673-.01 6.74.042 13.48-.079 20.219-.027 1.517-.657 3.024-1.39 4.635-.427-8.92-.471-17.941-.428-27.425zM406.981 433.44c.409-.402.863-.417 2.017-.433 1.413.006 2.126.013 2.84.02l1.525 8.355-1.686.785c-.884-1.494-1.795-2.972-2.643-4.486-.708-1.262-1.34-2.566-2.053-4.24z"/><path fill="#F140E3" d="M393.075 472.926c3.972 2.416 7.944 4.832 11.967 7.616.05.367.001.415-.395.475-1.141.027-1.887-.007-2.83-.31-3.075-2.744-5.953-5.218-8.81-7.714l.068-.067zM382.949 466.127c.01-.422.021-.844.032-1.582 3.336 2.342 6.671 5 10.05 8.02.044.36-.001.406-.39.447-3.49-2.268-6.591-4.577-9.692-6.885z"/><path fill="#F949DF" d="M408.027 413.994c.118-4.164.235-8.328.723-12.565.487.216.689.422.974.545.063 3.703.126 7.407-.167 11.568-.747.456-1.138.454-1.53.452z"/><path fill="#CB3AE4" d="M408.02 414.44c.399-.444.79-.442 1.475-.44.693 2.708 1.093 5.417 1.435 8.544-1.007-.514-2.463-1.3-2.787-2.414-.471-1.624-.128-3.484-.124-5.69z"/><path fill="#F140E3" d="M597.033 237.368c.042-.336.248-.359 1.122-.392 3.079 1.31 5.489 2.632 7.898 3.954-.124.114-.25.228-.575.496-2.895-1.145-5.588-2.445-8.445-4.058z"/><path fill="#F949DF" d="M408.021 382.479c.016-.466.426-.472.631-.47.256 5.343.306 10.685.309 16.49-.35-4.877-.653-10.216-.94-16.02z"/><path fill="#CB3AE4" d="M408.995 431.012c.495-1.58.995-3.168 1.831-4.917.61 1.263.884 2.688.735 4.505-1.139.397-1.856.401-2.573.405 0 0 .013-.003.007.007z"/><path fill="#F140E3" d="M601.051 224.948c1.328 1.08 2.632 2.182 3.983 3.628.046.345-.002.392-.373.406-1.474-1.312-2.576-2.639-3.678-3.966l.068-.068z"/><path fill="#CE35BE" d="M408.988 431.338c.717-.337 1.434-.34 2.508-.354.405.45.452.907.42 1.704-.792.332-1.505.325-2.577.317-.357-.445-.354-.889-.351-1.667z"/><path fill="#CB3AE4" d="M650.006 324.04c-.464-.008-.928-.017-1.74-.01-.348.014-.803-.09-1.03-.466-.237-.765-.247-1.154-.256-1.544 0 0 .068-.082.413-.065 1.1.707 1.857 1.396 2.613 2.085z"/><path fill="#F949DF" d="M303.125 402.424c.337 1.051.597 2.491.843 4.317-.316-1.052-.618-2.49-.843-4.317z"/><path fill="#CB3AE4" d="M567.373 296.874c.49-.225 1.348-.369 2.405-.304-.546.267-1.292.326-2.405.304z"/><path fill="#9B4AEC" d="M646.684 322.017c.305.393.315.782.334 1.465-.612-.109-1.233-.51-1.834-1.21.416-.285.81-.271 1.5-.255z"/><path fill="#7C3DC6" d="M689.137 389.32c.22.24.348.807.272 1.518-.257-.301-.31-.747-.272-1.519z"/><path fill="#7657F0" d="M717.329 429.037c-.166-.42-.06-1.001.28-1.775.153.41.073 1.01-.28 1.775zM617.723 511.211c.148.416.015.92-.33 1.59-.126-.39-.039-.946.33-1.59z"/><path fill="#CB3AE4" d="M409.82 401.672c-.381.179-.583-.027-.761-.53-.048-.4-.035-.587.004-1.053.3.24.577.76.757 1.583zM469.118 348.28c.417-.09.53.147.259.572-.132.087-.307-.345-.259-.573zM556.248 296.844c.019-.175.289-.273.654-.229-.07.197-.237.252-.654.229z"/><path fill="#B431BE" d="M471.439 439.005c-.432-.763-.452-1.529-.506-2.678-.005-27.297.096-54.212-.005-81.126-.021-5.555 1.084-10.56 6.261-13.084 4.867-2.373 9.823-1.676 14.52 1.63 5.815 4.093 11.975 7.693 18.163 11.78.754 1.404 1.045 3.106 1.959 3.562 3.166 1.58 3.408 4.171 3.168 7.109-.45 5.482.432 11.544-1.645 16.32-3.75 8.63-8.897 16.742-14.17 24.594-4.112 6.124-9.46 11.403-13.935 17.303a32.708 32.708 0 0 0-4.796 8.993c-1.5 4.362-4.185 6.11-9.014 5.597z"/><path fill="#A434BE" d="M533.996 371.467a288.668 288.668 0 0 1 22.8 13.646c-1.597 4.34-2.084 9.254-7.922 9.149-.502-.009-1.138.676-1.509 1.186-6.102 8.414-12.244 16.802-18.228 25.3-4.922 6.99-10.22 13.81-14.251 21.299-2.463 4.577-6.897 8.735-5.88 14.815-8.759 5.334-17.517 10.668-26.631 16.002.891-5.64 2.806-10.713 6.405-15.618 4.087-5.572 6.068-12.648 9.328-18.881 2.332-4.46 4.899-8.896 8.01-12.83 4.668-5.905 9.905-11.11 12.436-18.708 1.511-4.538 5.889-8.14 9.05-12.106 2.846-3.568 4.808-7.236 4.621-12.145-.135-3.535 1.132-7.122 1.771-11.109z"/><path fill="#7C3DC6" d="M708.003 337.011c6.305 9.39 8.502 20.265 10.864 31.005 1.228 5.584 1.458 11.388 2.127 17.536-3.578 2.332-7.482 3.782-10.636 6.208-5.197 3.996-9.908 8.624-15.137 13.127-3.273-11.337-6.228-22.817-9.204-34.292-.25-.96-.641-1.884-.643-3.212 1.48-1.773 2.733-3.09 3.769-4.558 1.291-1.83 2.043-4.197 3.658-5.614 6.497-5.7 11.593-12.368 15.201-20.2z"/><path fill="#D836BB" d="M312.954 433.019c-4.828-10.873-7.04-22.357-7.988-34.583-.002-7.46.018-14.478.414-21.927 5.36 1.682 11.003 2.934 15.167 6.12 5.388 4.122 11.015 5.414 17.368 5.368 2.114 17.01 8.54 32.485 16.969 47.976.805 1.458 1.475 2.234 2.146 3.01 0 0-.026.02-.031.398-1.204 6.386-5.74 4.35-9.465 4.321-5.642-.042-11.325-.459-16.916.074-4.435.422-7.293-.062-9.69-4.494-1.475-2.727-5.238-4.217-7.974-6.263z"/><path fill="#EA3DB1" d="M337.928 387.575c-6.366.468-11.993-.824-17.38-4.946-4.165-3.186-9.808-4.438-15.153-6.588 3.784-35.996 20.271-65.213 47.272-88.687l1.276.514c-.693 2.028-1.293 4.093-2.095 6.076-7.243 17.918-12.731 36.425-14.47 55.625-1.124 12.41.288 25.049.55 38.006z"/><path fill="#CE35BE" d="M313.01 433.386c2.68 1.679 6.443 3.169 7.918 5.896 2.397 4.432 5.255 4.916 9.69 4.494 5.59-.533 11.274-.116 16.916-.074 3.726.029 8.26 2.065 9.472-4.335 6.916 7.396 13.82 15.183 20.733 23.59-1.884 6.952-7.771 8.97-12.632 11.868-4.836 2.882-8.954 8.404-15.982 5.335-1.077-.47-2.809.558-4.238.894-14.861-12.905-25.194-28.857-31.878-47.668z"/><path fill="#C136BA" d="M345.063 481.34c1.253-.622 2.985-1.65 4.062-1.18 7.028 3.069 11.146-2.453 15.982-5.335 4.861-2.898 10.748-4.916 12.785-11.575 1.561.702 2.98 1.73 4.728 2.817 3.43 2.368 6.532 4.677 9.999 6.967 3.245 2.455 6.123 4.929 8.918 7.927-.055 4.611-2.28 7.381-5.042 10.17-4.731 4.777-9.06 9.953-13.559 14.961-14.12-5.76-26.917-13.56-37.873-24.752z"/><path fill="#CE35BE" d="M356.995 438.663c-.636-.456-1.306-1.232-1.972-2.372.649.442 1.293 1.247 1.972 2.372z"/><path fill="#5F48CB" d="M639.069 557.033c-2.406 3.538-4.832 7.062-7.206 10.622-1.002 1.502-1.894 3.079-2.857 4.976-1.494 1.332-3.195 2.086-4.41 3.32-19.905 20.204-43.864 32.624-71.865 36.84-19.691 2.966-38.955.364-57.906-6.628 32.069-1.818 60.21-13.214 85.244-33.978 2.48-.39 4.475-.291 6.108-1.012 7.152-3.16 14.027-7.025 21.34-9.716 5.632-2.073 12.1-1.994 17.578-4.322 5.013-2.131 9.334-.615 13.974-.102z"/><path fill="#6745C9" d="M639.361 556.867c-4.932-.347-9.253-1.863-14.266.268-5.479 2.328-11.946 2.25-17.578 4.322-7.313 2.691-14.188 6.556-21.34 9.716-1.633.72-3.628.622-5.805.868 13.816-12.596 24.683-27.665 33.905-44.723 5.496-.669 9.025-3.525 13.14-6.035 8.56-5.221 14.785-13.96 25.023-16.56 2.898-.736 5.712-1.803 8.565-2.718-2.018 16.614-7.826 31.932-15.99 46.42-1.61 2.859-3.565 5.523-5.654 8.442z"/><path fill="#7141C7" d="M661.172 501.633c-3.02 1.287-5.834 2.354-8.732 3.09-10.238 2.6-16.463 11.339-25.023 16.56-4.115 2.51-7.644 5.366-12.986 5.722.59-2.735 1.584-5.475 2.58-8.59 2.67-8.582 5.41-16.765 7.965-25.005.869-2.803 1.276-5.75 2.36-9.022 2.378-.81 4.375-1.008 6.19-1.69 6.832-2.567 10.915-8.386 13.949-14.281 3.397-6.604 9.835-9.416 14.432-14.386.362 11.195.92 22.388.99 33.584.029 4.546-1.007 9.098-1.725 14.018z"/><path fill="#D836BB" d="M410.95 351.968a95.296 95.296 0 0 0-.928 3.688c-.991.539-2.518.42-2.813.967-2.842 5.261-8.855 8.505-9.323 15.339-.27 3.943-3.028 5.595-7.378 5.044-1.764-13.627-4.363-27.27-4.232-40.885.299-31.045 8.1-60.324 25.493-86.412 5.105-7.656 11.696-14.32 18.152-21.311 1.985.425 3.542.463 4.843 1.059 9.721 4.447 19.402 8.983 29.053 13.58.581.277.802 1.311 1.19 1.993-10.752 9.611-20.749 19.824-28.271 32.323-9.816 16.309-16.333 33.886-21.634 52.193-.922.06-1.68-.018-1.763.182-2.953 7.174-4.509 14.515-2.39 22.24z"/><path fill="#B431BE" d="M598.975 298.039c-7.38-1.01-14.759-2.02-22.572-3.012-9.441-.008-18.449-.034-27.89-.425 1.63-3.303 3.217-6.792 5.85-9.074 7.432-6.441 13.81-14.289 23.379-18.045 2.343-.92 2.507-2.84.265-4.478 7.358.02 14.716.04 22.546.089 11.242 2.58 22.014 5.131 33.11 8.21-.777 1.568-1.762 2.78-3 3.618-3.658 2.473-7.68 4.474-11.078 7.25-6.721 5.492-11.418 13.575-20.61 15.867z"/><path fill="#C136BA" d="M577.55 262.995c2.699 1.648 2.535 3.568.192 4.488-9.57 3.756-15.947 11.604-23.378 18.045-2.634 2.282-4.221 5.771-6.32 9.056-25.565 2.379-50.165 8.547-74.096 17.682l-.738-1.25c4.476-4.017 8.679-8.4 13.476-11.988 20.497-15.325 42.475-27.848 67.811-33.234 7.396-1.573 15.056-1.906 23.052-2.799z"/><path fill="#EA3DB1" d="M465.319 244.887c-.7-.539-.92-1.573-1.502-1.85a2078.249 2078.249 0 0 0-29.053-13.58c-1.301-.596-2.858-.634-4.55-1.216.343-1.084.94-1.883 1.65-2.96 9.463-6.455 18.703-12.809 28.215-18.724 3.75-2.331 8.106-3.685 12.488-5.15-3.46 5.986-2.11 14.608 2.028 20.979 2.805 4.318 6.244 7.279 10.502 9.685-1.95 1.434-3.902 2.869-6.02 4.594-4.595 2.888-9.02 5.484-13.758 8.222z"/><path fill="#7C3DC6" d="M548.977 540.62c-1.092 1.224-2.405 1.908-3.27 2.96-12.514 15.221-25.807 29.489-44.287 37.724-11.959 5.33-24.452 8.21-37.934 8.329.234-1.282.756-2.342 1.549-3.13 9.228-9.172 18.56-18.243 27.709-27.495 2.08-2.103 4.716-4.488 2.2-8.046 7.413-4.008 15.012-7.711 22.204-12.084 18.611-11.315 34.02-26.342 48.316-42.6 3.214-3.654 6.536-7.212 9.808-10.814l1.492.864c-5.228 11.357-10.173 22.856-15.79 34.017-3.474 6.902-7.972 13.288-11.997 20.275z"/><path fill="#8938C3" d="M494.575 551.016c2.885 3.504.248 5.89-1.831 7.992-9.15 9.252-18.48 18.323-27.71 27.496-.792.788-1.314 1.847-1.996 3.12-6.097.031-12.16-.28-18.65-.587-3.256-.477-6.086-.959-8.985-1.986 6.012-6.078 12.333-11.378 18.056-17.26 2.205-2.265 3.05-5.853 4.515-8.838 8.515-2.111 17.031-4.222 25.786-6.596 3.641-1.271 7.044-2.28 10.815-3.341z"/><path fill="#B431BE" d="M383.165 506.352c4.27-5.268 8.599-10.444 13.33-15.222 2.761-2.788 4.987-5.558 5.24-9.899 1.026-.22 1.77-.187 2.887-.19 2.876 1.873 5.174 4.178 7.926 5.609 6.832 3.552 13.87 6.704 21.137 10.57-1.183 2.946-2.17 6.014-4.275 7.593-4.556 3.42-5.97 7.935-6.398 13.138a258.392 258.392 0 0 0-5.69-.863c-11.568-3.502-22.748-6.99-34.157-10.736z"/><path fill="#ED46AE" d="M485.47 232.049c-4.631-2.384-8.07-5.345-10.875-9.663-4.138-6.37-5.488-14.993-1.664-21.008 11.147-4.505 22.525-7.25 34.42-7.392 6.58-.078 13.162.002 20.19.394-3.886 6.665-7.801 13.3-12.703 19.1-3.064 3.624-7.69 5.9-11.44 8.993-.849.7-.97 2.282-1.425 3.458 0 0-.48.046-.934.154-.721.284-.915.52-1.036.816-4.72 1.708-9.44 3.417-14.532 5.148z"/><path fill="#E250B9" d="M502.364 225.908c.065-1.153.185-2.735 1.034-3.435 3.75-3.093 8.376-5.369 11.44-8.993 4.902-5.8 8.817-12.435 13.151-19.085 10.524 2.091 21.046 4.551 31.762 7.639-2.09 2.02-4.802 4.995-6.576 4.513-5.525-1.499-8.553 1.836-11.795 4.7-4.602 4.066-8.126 9.657-15.256 9.694-7.79 1.648-15.58 3.296-23.76 4.967z"/><path fill="#D836BB" d="M526.58 220.954c6.674-.05 10.198-5.64 14.8-9.707 3.242-2.864 6.27-6.199 11.795-4.7 1.774.482 4.486-2.493 6.82-4.248 6.15 2.246 12.25 4.856 18.67 7.613 1.245.916 2.17 1.684 2.98 2.924-3.35 7.591-10.302 8.962-16.692 11.2a20385.63 20385.63 0 0 0-38.374-3.082z"/><path fill="#CE35BE" d="M410.967 351.552c-2.137-7.31-.58-14.65 2.372-21.824.082-.2.841-.122 1.494.078-1.143 7.278-2.496 14.304-3.866 21.746z"/><path fill="#8938C3" d="M638.033 389.995c5.321 11.077 10.643 22.154 15.607 33.62-8.952 4.117-17.118 8.247-20.967 17.755-.637 1.573-2.996 2.45-4.56 3.648-1.601-10.105-3.202-20.21-4.953-30.668-.789-3.103-1.428-5.851-1.746-9.014 1.621-1.807 2.825-3.307 4.24-4.57 4.08-3.642 8.247-7.188 12.379-10.771z"/><path fill="#9A34C0" d="M637.897 389.683c-3.996 3.895-8.162 7.441-12.242 11.082-1.416 1.264-2.62 2.764-4.265 4.192-5.806-20.232-14.14-39.392-23.543-58.14l1.077-.796c2.734 2.215 5.813 4.119 8.142 6.7 8.979 9.946 17.714 20.113 26.55 30.188.875.997 1.827 1.926 3.03 3.072.563 1.253.839 2.322 1.25 3.702zM650.214 324.305c-.964-.954-1.72-1.643-2.789-2.392-2.26-1.792-4.208-3.525-6.13-5.823 5.358-5.349 11.311-9.622 15.819-15.087 3.295-3.995 9.848-5.473 9.9-12.072 3.416 2.352 6.834 4.703 10.6 7.076.347.02.37 0 .462.26.363.487.636.716.908.946 3.923 4.379 7.847 8.758 11.859 13.814-1.858 7.33-5.551 12.335-12.527 14.43-.98.295-1.938 1.258-2.526 2.159-2.672 4.089-5.207 8.267-7.791 12.413-4.358-4.205-8.661-8.468-13.106-12.579-1.282-1.186-2.97-1.933-4.68-3.145z"/><path fill="#8938C3" d="M668.147 340.33a190.292 190.292 0 0 1 7.643-12.714c.588-.901 1.546-1.864 2.526-2.158 6.976-2.096 10.669-7.1 12.665-14.123 5.68 8.072 11.31 16.514 16.98 25.316-3.567 8.192-8.663 14.86-15.16 20.56-1.615 1.417-2.367 3.784-3.658 5.614-1.036 1.469-2.288 2.785-3.828 4.184-5.93-8.783-11.475-17.58-17.168-26.68z"/><path fill="#7C3DC6" d="M628.086 445.45c1.59-1.63 3.95-2.507 4.587-4.08 3.85-9.508 12.015-13.638 20.985-17.372 2.335 6.414 4.294 12.836 6.304 19.649a507.572 507.572 0 0 0 1.83 10.012c-4.482 5.342-10.92 8.154-14.317 14.758-3.034 5.895-7.117 11.714-13.95 14.28-1.814.683-3.81.88-6.132 1.299.232-6.918 1.187-13.823 1.417-20.752.192-5.773-.468-11.574-.724-17.795z"/><path fill="#9A34C0" d="M457.508 560.954c-.999 2.984-1.844 6.572-4.049 8.838-5.723 5.881-12.044 11.181-18.326 16.989a577.273 577.273 0 0 1-26.975-9.816c-1.57-.616-2.796-2.111-3.866-3.576 6.336-4.309 12.379-8.21 18.332-12.243.456-.309.277-1.556.393-2.368 4.025.411 8.05.822 12.519 1.23 7.464.313 14.485.63 21.972.946z"/><path fill="#AC31BF" d="M422.743 558.541c.158 1.049.337 2.296-.12 2.605a519.812 519.812 0 0 1-18.406 11.897c-3.105-1.242-5.82-2.512-8.845-3.921-10.78-9.007-20.086-18.87-26.69-31.033a79.481 79.481 0 0 1-2.441-4.907c-.177-.387-.027-.924-.027-2.497 17.006 13.88 35.572 22.99 56.53 27.856z"/><path fill="#CB3AE4" d="M678.911 296.945c-.2.038-.472-.19-.835-.672.194-.033.478.185.835.672z"/><path fill="#BE3DC1" d="M565.213 224.305c6.13-2.507 13.083-3.878 16.596-11.21 6.344 3.825 12.406 7.864 18.821 11.912 1.455 1.336 2.557 2.663 4.007 4 3.545 5.096 6.742 10.184 10.543 16.233-3.522-1.76-5.974-2.984-8.776-4.26-2.76-1.372-5.17-2.694-7.94-4.038-3.973-1.924-7.427-4.275-11.235-5.633-7.143-2.549-14.491-4.523-22.015-7.004z"/><path fill="#E250B9" d="M500.224 226.822c-.1-.217.094-.453.574-.72.11.217-.079.462-.574.72z"/><path fill="#A434BE" d="M423.419 518.02c.02-5.272 1.435-9.788 5.991-13.207 2.105-1.58 3.092-4.647 4.584-7.42 7.73 2.288 15.464 4.957 23.584 7.65 11.374 3.328 22.36 6.63 34.173 10.182-5.232 1.162-9.946 2.437-14.74 3.233-17.737 2.943-35.477 2.568-53.592-.438z"/><path fill="#A032C1" d="M509.327 456.763c-1.338-5.98 3.096-10.14 5.559-14.716 4.03-7.489 9.329-14.309 14.251-21.299 5.984-8.498 12.126-16.886 18.228-25.3.37-.51 1.007-1.195 1.509-1.186 5.838.105 6.325-4.81 8.118-8.876 6.433 3.62 12.862 7.614 19.645 11.615.618 1.294.881 2.58 1.149 3.865 1.716 8.245.063 12.208-6.98 16.893-7.263 4.83-14.505 9.693-21.787 14.885-2.953 1.757-6.03 2.924-8.772 4.627-10.258 6.369-20.408 12.913-30.92 19.492z"/><path fill="#A434BE" d="M666.848 288.642c.114 6.888-6.44 8.366-9.734 12.361-4.508 5.465-10.46 9.738-15.992 14.804-8.608-3.981-16.873-8.575-25.484-12.385-5.098-2.256-10.744-3.274-16.404-5.116 8.933-2.56 13.63-10.642 20.351-16.134 3.398-2.776 7.42-4.777 11.078-7.25 1.238-.838 2.223-2.05 3.344-3.453 10.905 5.387 21.79 11.135 32.841 17.173z"/></svg>